<mxfile host="app.diagrams.net" agent="Mozilla/5.0 (X11; Ubuntu; Linux x86_64; rv:136.0) Gecko/20100101 Firefox/136.0" version="26.1.1">
  <diagram name="Page-1" id="hsA-VaDMaVPjtfVfDZN1">
    <mxGraphModel dx="398" dy="220" grid="1" gridSize="10" guides="1" tooltips="1" connect="1" arrows="1" fold="1" page="1" pageScale="1" pageWidth="850" pageHeight="1100" math="0" shadow="0">
      <root>
        <mxCell id="0" />
        <mxCell id="1" parent="0" />
        <mxCell id="6wkh5i-xCteU9eB1enYY-3" style="edgeStyle=orthogonalEdgeStyle;rounded=1;orthogonalLoop=1;jettySize=auto;html=1;exitX=1;exitY=0.5;exitDx=0;exitDy=0;curved=0;" parent="1" source="6wkh5i-xCteU9eB1enYY-1" target="6wkh5i-xCteU9eB1enYY-2" edge="1">
          <mxGeometry relative="1" as="geometry" />
        </mxCell>
        <mxCell id="6wkh5i-xCteU9eB1enYY-4" value="&lt;div&gt;&lt;span style=&quot;color: rgb(51, 51, 255);&quot;&gt;i_req=1&lt;/span&gt;&lt;/div&gt;&lt;span style=&quot;color: rgb(255, 51, 51);&quot;&gt;o_ack=1&lt;/span&gt;" style="edgeLabel;html=1;align=center;verticalAlign=middle;resizable=0;points=[];" parent="6wkh5i-xCteU9eB1enYY-3" vertex="1" connectable="0">
          <mxGeometry x="-0.3805" y="-6" relative="1" as="geometry">
            <mxPoint x="40" as="offset" />
          </mxGeometry>
        </mxCell>
        <mxCell id="6wkh5i-xCteU9eB1enYY-1" value="Idle" style="ellipse;whiteSpace=wrap;html=1;" parent="1" vertex="1">
          <mxGeometry x="150" y="140" width="40" height="30" as="geometry" />
        </mxCell>
        <mxCell id="6wkh5i-xCteU9eB1enYY-13" style="edgeStyle=orthogonalEdgeStyle;rounded=1;orthogonalLoop=1;jettySize=auto;html=1;exitX=0.5;exitY=1;exitDx=0;exitDy=0;entryX=1;entryY=0.5;entryDx=0;entryDy=0;curved=0;" parent="1" source="6wkh5i-xCteU9eB1enYY-2" target="6wkh5i-xCteU9eB1enYY-5" edge="1">
          <mxGeometry relative="1" as="geometry" />
        </mxCell>
        <mxCell id="6wkh5i-xCteU9eB1enYY-2" value="Request" style="ellipse;whiteSpace=wrap;html=1;" parent="1" vertex="1">
          <mxGeometry x="190" y="190" width="60" height="30" as="geometry" />
        </mxCell>
        <mxCell id="6wkh5i-xCteU9eB1enYY-15" style="edgeStyle=orthogonalEdgeStyle;rounded=1;orthogonalLoop=1;jettySize=auto;html=1;exitX=0;exitY=0.5;exitDx=0;exitDy=0;entryX=0;entryY=0.5;entryDx=0;entryDy=0;curved=0;" parent="1" source="6wkh5i-xCteU9eB1enYY-5" target="6wkh5i-xCteU9eB1enYY-1" edge="1">
          <mxGeometry relative="1" as="geometry" />
        </mxCell>
        <mxCell id="6wkh5i-xCteU9eB1enYY-16" value="&lt;div&gt;&lt;span style=&quot;color: rgb(51, 51, 255);&quot;&gt;i_emu_busy=0&lt;/span&gt;&lt;/div&gt;&lt;div&gt;&lt;span style=&quot;color: rgb(51, 51, 255);&quot;&gt;&amp;amp; spike_flag=0&lt;/span&gt;&lt;span style=&quot;color: rgb(51, 51, 255);&quot;&gt;&lt;span style=&quot;color: rgba(0, 0, 0, 0);&quot;&gt;/&lt;/span&gt;&lt;/span&gt;&lt;/div&gt;&lt;div&gt;&lt;span style=&quot;color: rgb(255, 51, 51);&quot;&gt;ram_en=0&lt;/span&gt;&lt;/div&gt;" style="edgeLabel;html=1;align=center;verticalAlign=middle;resizable=0;points=[];" parent="6wkh5i-xCteU9eB1enYY-15" vertex="1" connectable="0">
          <mxGeometry x="-0.101" y="1" relative="1" as="geometry">
            <mxPoint x="-39" y="-2" as="offset" />
          </mxGeometry>
        </mxCell>
        <mxCell id="6wkh5i-xCteU9eB1enYY-5" value="wait_data" style="ellipse;whiteSpace=wrap;html=1;" parent="1" vertex="1">
          <mxGeometry x="140" y="240" width="60" height="30" as="geometry" />
        </mxCell>
        <mxCell id="6wkh5i-xCteU9eB1enYY-18" value="&lt;div&gt;&lt;span style=&quot;color: rgb(51, 51, 255);&quot;&gt;i_req=0&lt;/span&gt;&lt;/div&gt;&lt;div&gt;&lt;span style=&quot;color: rgb(255, 51, 51);&quot;&gt;o_ack=0&lt;/span&gt;&lt;/div&gt;&lt;div&gt;&lt;span style=&quot;color: rgb(255, 51, 51);&quot;&gt;ram_en=1&lt;/span&gt;&lt;/div&gt;" style="edgeLabel;html=1;align=center;verticalAlign=middle;resizable=0;points=[];" parent="1" vertex="1" connectable="0">
          <mxGeometry x="250" y="240" as="geometry" />
        </mxCell>
      </root>
    </mxGraphModel>
  </diagram>
</mxfile>
